<svg width="7" height="8" viewBox="0 0 7 8" fill="none" xmlns="http://www.w3.org/2000/svg">
<path d="M6.03693 3.3447C6.06412 3.36646 6.0858 3.39917 6.09668 3.4318C6.11299 3.46444 6.11845 3.49704 6.11845 3.53511C6.11845 3.57318 6.11299 3.60578 6.09668 3.63841C6.0858 3.67104 6.06412 3.70376 6.03693 3.72551L3.25229 6.51546C2.89334 6.87441 2.40931 7.07021 1.90352 7.07021C1.39773 7.07021 0.913572 6.86897 0.560062 6.51546C0.201112 6.15651 0 5.67249 0 5.16669C0 4.6609 0.201112 4.17688 0.560062 3.82337L3.93212 0.397009C4.18773 0.141394 4.53038 0 4.89476 0C5.25371 0 5.60179 0.141394 5.85741 0.397009C6.10759 0.652624 6.25442 1.00071 6.25442 1.35966C6.25442 1.71861 6.11303 2.06669 5.85741 2.3223L2.48005 5.74322C2.32776 5.8955 2.12106 5.98249 1.90352 5.98249C1.68597 5.98249 1.47927 5.8955 1.32699 5.74322C1.17471 5.59094 1.08773 5.38424 1.08773 5.16669C1.08773 4.94915 1.17471 4.74245 1.32699 4.59017L4.15518 1.71311C4.18238 1.68592 4.20939 1.66424 4.24202 1.64792C4.28009 1.63704 4.31283 1.62614 4.3509 1.62614C4.38353 1.62614 4.42157 1.6316 4.4542 1.64792C4.49227 1.6588 4.51942 1.68047 4.54662 1.70223C4.57381 1.72942 4.59032 1.76214 4.60663 1.79477C4.62295 1.8274 4.62814 1.86544 4.62814 1.89807C4.62814 1.93615 4.61751 1.97419 4.60663 2.00682C4.59032 2.03945 4.56837 2.06673 4.54662 2.09392L1.71311 4.97085C1.68592 4.99804 1.66968 5.03076 1.65336 5.06339C1.63705 5.09602 1.63159 5.12862 1.63159 5.16669C1.63159 5.19933 1.63705 5.23736 1.65336 5.27C1.66424 5.30263 1.68592 5.32991 1.71311 5.3571C1.73487 5.38429 1.76759 5.40597 1.80022 5.41685C1.83285 5.43317 1.86545 5.43863 1.90352 5.43863C1.94159 5.43863 1.97419 5.43317 2.00682 5.41685C2.03945 5.40597 2.07217 5.38429 2.09392 5.3571L5.47129 1.93618C5.62357 1.7839 5.71056 1.5772 5.71056 1.35966C5.71056 1.14211 5.62357 0.935412 5.47129 0.78313C5.31901 0.630849 5.11231 0.543863 4.89476 0.543863C4.67722 0.543863 4.47052 0.630849 4.31824 0.78313L0.940872 4.20405C0.815783 4.32913 0.717867 4.48145 0.647165 4.64461C0.581901 4.80777 0.543863 4.98722 0.543863 5.16669C0.543863 5.34617 0.581901 5.52018 0.647165 5.68334C0.717867 5.85193 0.815783 5.99881 0.940872 6.12934C1.06596 6.25443 1.21827 6.35235 1.38143 6.42305C1.55003 6.48831 1.72404 6.52635 1.90352 6.52635C2.08299 6.52635 2.25701 6.49375 2.42561 6.42305C2.58876 6.35235 2.74108 6.25443 2.86617 6.12934L5.65612 3.33926C5.70506 3.29031 5.77582 3.26318 5.84652 3.26318C5.91722 3.26318 5.98798 3.29032 6.03693 3.3447Z" fill="black"/>
</svg>
