<svg width="8" height="8" viewBox="0 0 8 8" fill="none" xmlns="http://www.w3.org/2000/svg">
<path d="M3.53724 0C2.83566 0 2.15591 0.206721 1.57397 0.598302C0.992041 0.984444 0.540688 1.5337 0.268757 2.18089C0.00226442 2.82809 -0.0685014 3.54056 0.0674642 4.22582C0.208868 4.91109 0.540508 5.54201 1.03542 6.03693C1.53034 6.53184 2.16126 6.86348 2.84653 7.00489C3.53179 7.14085 4.24439 7.07022 4.89159 6.80373C5.53878 6.53179 6.08791 6.08044 6.47405 5.49851C6.86563 4.91658 7.07235 4.23669 7.07235 3.53511C7.07235 2.59966 6.697 1.6968 6.03349 1.03873C5.37541 0.375217 4.47269 0 3.53724 0ZM6.5176 3.26318H5.16352C5.11457 2.2951 4.81528 1.37594 4.30949 0.647165C4.89686 0.804885 5.42999 1.14209 5.82157 1.60981C6.21859 2.07753 6.45777 2.65405 6.5176 3.26318ZM3.53724 6.52091C2.90092 5.83564 2.51465 4.85669 2.45483 3.80704H4.61966C4.55983 4.85669 4.17356 5.83564 3.53724 6.52091ZM2.45483 3.26318C2.51465 2.21352 2.90092 1.23457 3.53724 0.549306C4.17356 1.23457 4.55983 2.21352 4.61966 3.26318H2.45483ZM2.765 0.647165C2.25921 1.37594 1.95991 2.2951 1.91097 3.26318H0.556887C0.616712 2.65405 0.855895 2.07753 1.25291 1.60981C1.6445 1.14209 2.17763 0.804885 2.765 0.647165ZM0.556887 3.80704H1.91097C1.95991 4.77511 2.25921 5.69427 2.765 6.42305C2.17763 6.26533 1.6445 5.92812 1.25291 5.4604C0.855895 4.99268 0.616712 4.41616 0.556887 3.80704ZM4.30949 6.42305C4.81528 5.69427 5.11457 4.77511 5.16352 3.80704H6.5176C6.45777 4.41616 6.21859 4.99268 5.82157 5.4604C5.42999 5.92812 4.89686 6.26533 4.30949 6.42305Z" fill="black"/>
</svg>
