<svg width="6" height="8" viewBox="0 0 6 8" fill="none" xmlns="http://www.w3.org/2000/svg">
<path d="M4.6229 7.34323C4.6229 7.41394 4.59576 7.48469 4.54137 7.53364C4.49242 7.58803 4.42167 7.61517 4.35097 7.61517H1.63165C1.56095 7.61517 1.4902 7.58803 1.44125 7.53364C1.38686 7.48469 1.35972 7.41394 1.35972 7.34323C1.35972 7.27253 1.38686 7.20178 1.44125 7.15283C1.4902 7.09844 1.56095 7.0713 1.63165 7.0713H4.35097C4.42167 7.0713 4.49242 7.09844 4.54137 7.15283C4.59576 7.20178 4.6229 7.27253 4.6229 7.34323ZM5.98256 2.99233C5.98256 3.44374 5.87933 3.8951 5.68354 4.303C5.48775 4.71089 5.1939 5.06449 4.84039 5.3473C4.76969 5.39625 4.72072 5.46143 4.68265 5.53757C4.64458 5.61371 4.6229 5.69539 4.6229 5.77697V5.98358C4.6229 6.13042 4.56305 6.26637 4.46516 6.3697C4.36182 6.46759 4.22588 6.52744 4.07904 6.52744H1.90359C1.75674 6.52744 1.6208 6.46759 1.51746 6.3697C1.41957 6.26637 1.35972 6.13042 1.35972 5.98358V5.77697C1.35972 5.69539 1.33792 5.61371 1.30528 5.53757C1.26721 5.46687 1.21281 5.40169 1.14754 5.3473C0.794032 5.06993 0.505891 4.71634 0.304662 4.31388C0.103433 3.90599 6.72109e-05 3.46007 6.72109e-05 3.00867C-0.01081 1.38796 1.29996 0.0391605 2.92067 0.00109016C3.31769 -0.00978709 3.71452 0.0608513 4.08435 0.207694C4.45961 0.354537 4.79685 0.572178 5.07966 0.849548C5.36791 1.13236 5.59088 1.46414 5.7486 1.82853C5.90088 2.19835 5.98256 2.59531 5.98256 2.99233ZM5.43869 2.99233C5.43869 2.66602 5.37338 2.34514 5.24829 2.04057C5.11776 1.74145 4.93297 1.46953 4.69911 1.24111C4.46525 1.01269 4.19319 0.833232 3.88863 0.713582C3.58407 0.593932 3.25788 0.539514 2.93156 0.544953C1.60454 0.577584 0.538491 1.68164 0.54393 3.00322C0.54393 3.37305 0.630926 3.73742 0.794085 4.06917C0.957244 4.40093 1.19112 4.69464 1.4848 4.91763C1.61533 5.02096 1.71857 5.15146 1.79471 5.29831C1.86541 5.45059 1.90359 5.61382 1.90359 5.77697V5.98358H2.71938V4.46618L1.71318 3.45467C1.65879 3.40572 1.63165 3.33497 1.63165 3.26427C1.63165 3.19356 1.65879 3.12281 1.71318 3.07386C1.76213 3.01947 1.83288 2.99233 1.90359 2.99233C1.97429 2.99233 2.04504 3.01947 2.09399 3.07386L2.99131 3.96587L3.88863 3.07386C3.91039 3.04667 3.9431 3.02499 3.97573 3.01411C4.00837 2.99779 4.04097 2.99233 4.07904 2.99233C4.11711 2.99233 4.14971 2.99779 4.18234 3.01411C4.21497 3.02499 4.24769 3.04667 4.26944 3.07386C4.29663 3.09561 4.31831 3.12833 4.32919 3.16096C4.34551 3.1936 4.35097 3.2262 4.35097 3.26427C4.35097 3.30234 4.34551 3.33494 4.32919 3.36757C4.31831 3.4002 4.29663 3.43292 4.26944 3.45467L3.26324 4.46618V5.98358H4.07904V5.77697C4.07904 5.61382 4.11708 5.45059 4.19323 5.29831C4.26393 5.15146 4.37261 5.02096 4.50313 4.91763C4.79682 4.68921 5.03069 4.39548 5.19385 4.06373C5.35701 3.73197 5.43869 3.36216 5.43869 2.99233Z" fill="black"/>
</svg>
