<svg width="6" height="7" viewBox="0 0 6 7" fill="none" xmlns="http://www.w3.org/2000/svg">
<path d="M5.3571 2.90972C5.33534 2.93691 5.30263 2.95859 5.27 2.96947C5.23736 2.98578 5.20476 2.99124 5.16669 2.99124C5.12862 2.99124 5.09602 2.98578 5.06339 2.96947C5.03076 2.95859 4.99804 2.93691 4.97629 2.90972L2.99124 0.929984V6.25442C2.99124 6.32512 2.9641 6.39588 2.90972 6.44482C2.86077 6.49921 2.79001 6.52635 2.71931 6.52635C2.64861 6.52635 2.57786 6.49921 2.52891 6.44482C2.47452 6.39588 2.44738 6.32512 2.44738 6.25442V0.929984L0.462336 2.90972C0.413389 2.9641 0.342633 2.99124 0.271931 2.99124C0.201229 2.99124 0.130474 2.9641 0.0815263 2.90972C0.02714 2.86077 0 2.79001 0 2.71931C0 2.64861 0.02714 2.57786 0.0815263 2.52891L2.52891 0.0815263C2.55066 0.0543331 2.58338 0.032653 2.61601 0.0217757C2.64864 0.00545987 2.68124 0 2.71931 0C2.75738 0 2.78998 0.00545987 2.82261 0.0217757C2.85525 0.032653 2.88796 0.0543331 2.90972 0.0815263L5.3571 2.52891C5.38429 2.55066 5.40597 2.58338 5.41685 2.61601C5.43317 2.64864 5.43863 2.68124 5.43863 2.71931C5.43863 2.75738 5.43317 2.78998 5.41685 2.82261C5.40597 2.85525 5.38429 2.88796 5.3571 2.90972Z" fill="white"/>
</svg>
