<svg width="8" height="8" viewBox="0 0 8 8" fill="none" xmlns="http://www.w3.org/2000/svg">
<path d="M3.94514 5.30266C3.94514 5.38424 3.92345 5.46034 3.8745 5.53104C3.83099 5.5963 3.76569 5.6507 3.69498 5.67789C3.61884 5.71052 3.5373 5.71599 3.45572 5.70511C3.37958 5.6888 3.3035 5.65075 3.24911 5.59092C3.18929 5.53654 3.15097 5.46033 3.13466 5.38419C3.12378 5.30261 3.12938 5.22106 3.16201 5.14492C3.1892 5.07422 3.2436 5.00891 3.30886 4.9654C3.37957 4.91645 3.45566 4.89476 3.53724 4.89476C3.64602 4.89476 3.74923 4.93826 3.82537 5.0144C3.90151 5.09054 3.94514 5.19389 3.94514 5.30266ZM3.53724 1.63159C2.78671 1.63159 2.17759 2.18089 2.17759 2.85528V2.99124C2.17759 3.06195 2.20473 3.1327 2.25911 3.18165C2.30806 3.23604 2.37882 3.26318 2.44952 3.26318C2.52022 3.26318 2.59098 3.23604 2.63992 3.18165C2.69431 3.1327 2.72145 3.06195 2.72145 2.99124V2.85528C2.72145 2.48001 3.08584 2.17545 3.53724 2.17545C3.98865 2.17545 4.35304 2.48001 4.35304 2.85528C4.35304 3.23054 3.98865 3.53511 3.53724 3.53511C3.46654 3.53511 3.39579 3.56225 3.34684 3.61663C3.29245 3.66558 3.26531 3.73634 3.26531 3.80704V4.07897C3.26531 4.14967 3.29245 4.22043 3.34684 4.26937C3.39579 4.32376 3.46654 4.3509 3.53724 4.3509C3.60795 4.3509 3.6787 4.32376 3.72765 4.26937C3.78203 4.22043 3.80917 4.14967 3.80917 4.07897V4.05175C4.42918 3.94298 4.8969 3.44809 4.8969 2.85528C4.8969 2.18089 4.28777 1.63159 3.53724 1.63159ZM7.07235 3.53511C7.07235 4.23669 6.86563 4.91658 6.47405 5.49851C6.08791 6.08044 5.53878 6.53179 4.89159 6.80373C4.24439 7.07022 3.53179 7.14085 2.84653 7.00489C2.16126 6.86348 1.53034 6.53184 1.03542 6.03693C0.540508 5.54201 0.208868 4.91109 0.0674642 4.22582C-0.0685014 3.54056 0.00226442 2.82809 0.268757 2.18089C0.540688 1.5337 0.992041 0.984444 1.57397 0.598302C2.15591 0.206721 2.83566 0 3.53724 0C4.47269 0 5.37541 0.375217 6.03349 1.03873C6.697 1.6968 7.07235 2.59966 7.07235 3.53511ZM6.52849 3.53511C6.52849 2.9423 6.35436 2.36577 6.0226 1.87086C5.69628 1.38138 5.22871 0.995226 4.67941 0.772242C4.13555 0.54382 3.5319 0.484096 2.95541 0.603746C2.37347 0.717957 1.84032 1.00077 1.42154 1.41954C1.00277 1.83831 0.719961 2.3712 0.60575 2.95314C0.4861 3.52963 0.545957 4.13341 0.774379 4.67727C0.997363 5.22657 1.38352 5.69428 1.87299 6.0206C2.36791 6.35235 2.94443 6.52635 3.53724 6.52635C4.33128 6.52635 5.09276 6.21085 5.65294 5.65067C6.21312 5.09049 6.52849 4.32915 6.52849 3.53511Z" fill="black"/>
</svg>
