<svg width="7" height="7" viewBox="0 0 7 7" fill="none" xmlns="http://www.w3.org/2000/svg">
<path d="M6.64054 1.68058L5.11783 0.157741C5.06888 0.108794 5.00889 0.0707446 4.94363 0.0435515C4.87836 0.0163584 4.80772 0 4.73702 0C4.66632 0 4.59554 0.0163584 4.52484 0.0435515C4.45958 0.0707446 4.39985 0.108794 4.3509 0.157741L0.157741 4.3509C0.108794 4.39985 0.0707446 4.45971 0.0435515 4.52497C0.0163584 4.59568 0 4.66632 0 4.73702V6.25442C0 6.40126 0.0598461 6.53721 0.157741 6.64054C0.261075 6.73844 0.39702 6.79828 0.543863 6.79828H6.25442C6.32512 6.79828 6.39588 6.77114 6.44482 6.71676C6.49921 6.66781 6.52635 6.59705 6.52635 6.52635C6.52635 6.45565 6.49921 6.38489 6.44482 6.33595C6.39588 6.28156 6.32512 6.25442 6.25442 6.25442H2.8335L6.64054 2.44738C6.68949 2.39843 6.72754 2.33857 6.75473 2.27331C6.78192 2.20261 6.79828 2.13196 6.79828 2.06126C6.79828 1.99056 6.78192 1.91979 6.75473 1.85452C6.72754 1.78926 6.68949 1.72953 6.64054 1.68058ZM2.06126 6.25442H0.543863V4.73702L3.53511 1.74578L5.0525 3.26318L2.06126 6.25442ZM5.43863 2.87705L3.92123 1.35966L4.73702 0.543863L6.25442 2.06126L5.43863 2.87705Z" fill="black"/>
</svg>
